<svg width="20" height="20" viewBox="0 0 20 20" fill="none" xmlns="http://www.w3.org/2000/svg">
<rect width="20" height="20" rx="10" transform="matrix(-1 0 0 1 20 0)" fill="#FE7F32"/>
<path d="M8.23439 13.4849C8.19955 13.5197 8.17191 13.5611 8.15306 13.6066C8.1342 13.6521 8.1245 13.7009 8.1245 13.7502C8.1245 13.7995 8.1342 13.8483 8.15306 13.8938C8.17191 13.9393 8.19955 13.9807 8.23439 14.0155C8.26923 14.0504 8.3106 14.078 8.35612 14.0969C8.40164 14.1157 8.45043 14.1254 8.4997 14.1254C8.54898 14.1254 8.59777 14.1157 8.64329 14.0969C8.68881 14.078 8.73018 14.0504 8.76502 14.0155L12.515 10.2655C12.5499 10.2307 12.5775 10.1893 12.5964 10.1438C12.6153 10.0983 12.625 10.0495 12.625 10.0002C12.625 9.95093 12.6153 9.90213 12.5964 9.85661C12.5775 9.81108 12.5499 9.76972 12.515 9.7349L8.76502 5.9849C8.69465 5.91453 8.59922 5.875 8.4997 5.875C8.40019 5.875 8.30476 5.91453 8.23439 5.9849C8.16403 6.05526 8.1245 6.1507 8.1245 6.25021C8.1245 6.34972 8.16403 6.44516 8.23439 6.51552L11.7195 10.0002L8.23439 13.4849Z" fill="white"/>
</svg>
