<svg width="32" height="32" viewBox="0 0 32 32" fill="none" xmlns="http://www.w3.org/2000/svg">
<rect width="32" height="32" rx="16" fill="#FFEADD"/>
<path d="M16.0175 8.42578C13.2591 8.42578 11.0175 10.6674 11.0175 13.4258V15.8341C11.0175 16.3424 10.8008 17.1174 10.5425 17.5508L9.58414 19.1424C8.99247 20.1258 9.40081 21.2174 10.4841 21.5841C14.0758 22.7841 17.9508 22.7841 21.5425 21.5841C22.5508 21.2508 22.9925 20.0591 22.4425 19.1424L21.4841 17.5508C21.2341 17.1174 21.0175 16.3424 21.0175 15.8341V13.4258C21.0175 10.6758 18.7675 8.42578 16.0175 8.42578Z" fill="#331300" stroke="#292D32" stroke-width="1.5" stroke-miterlimit="10" stroke-linecap="round"/>
<path d="M17.5579 8.66719C17.2996 8.59219 17.0329 8.53385 16.7579 8.50052C15.9579 8.40052 15.1913 8.45885 14.4746 8.66719C14.7163 8.05052 15.3163 7.61719 16.0163 7.61719C16.7163 7.61719 17.3163 8.05052 17.5579 8.66719Z" fill="#331300" stroke="#292D32" stroke-width="1.5" stroke-miterlimit="10" stroke-linecap="round" stroke-linejoin="round"/>
<g opacity="0.4">
<path d="M18.5176 21.8828C18.5176 23.2578 17.3926 24.3828 16.0176 24.3828C15.3342 24.3828 14.7009 24.0995 14.2509 23.6495C13.8009 23.1995 13.5176 22.5661 13.5176 21.8828" fill="#331300"/>
<path d="M18.5176 21.8828C18.5176 23.2578 17.3926 24.3828 16.0176 24.3828C15.3342 24.3828 14.7009 24.0995 14.2509 23.6495C13.8009 23.1995 13.5176 22.5661 13.5176 21.8828" stroke="#292D32" stroke-width="1.5" stroke-miterlimit="10"/>
</g>
</svg>
