<svg width="32" height="32" viewBox="0 0 32 32" fill="none" xmlns="http://www.w3.org/2000/svg">
<rect width="32" height="32" rx="16" fill="#E5F9EE"/>
<path d="M21.4422 11.442L12.5086 20.3749H19.125C19.2908 20.3749 19.4497 20.4407 19.5669 20.5579C19.6842 20.6751 19.75 20.8341 19.75 20.9999C19.75 21.1656 19.6842 21.3246 19.5669 21.4418C19.4497 21.559 19.2908 21.6249 19.125 21.6249H11C10.8342 21.6249 10.6753 21.559 10.5581 21.4418C10.4408 21.3246 10.375 21.1656 10.375 20.9999V12.8749C10.375 12.7091 10.4408 12.5501 10.5581 12.4329C10.6753 12.3157 10.8342 12.2499 11 12.2499C11.1658 12.2499 11.3247 12.3157 11.4419 12.4329C11.5592 12.5501 11.625 12.7091 11.625 12.8749V19.4913L20.5578 10.5577C20.6159 10.4996 20.6848 10.4535 20.7607 10.4221C20.8366 10.3907 20.9179 10.3745 21 10.3745C21.0821 10.3745 21.1634 10.3907 21.2393 10.4221C21.3152 10.4535 21.3841 10.4996 21.4422 10.5577C21.5003 10.6157 21.5463 10.6847 21.5777 10.7605C21.6092 10.8364 21.6253 10.9177 21.6253 10.9999C21.6253 11.082 21.6092 11.1633 21.5777 11.2392C21.5463 11.315 21.5003 11.384 21.4422 11.442Z" fill="#00C159"/>
</svg>
