<svg width="20" height="20" viewBox="0 0 20 20" fill="none" xmlns="http://www.w3.org/2000/svg">
<path d="M9.99961 17.5V10M9.99961 5.83333H6.62461C4.31628 5.83333 4.17461 2.5 6.62461 2.5C9.24961 2.5 9.99961 5.83333 9.99961 5.83333ZM9.99961 5.83333H13.3746C15.7879 5.83333 15.7879 2.5 13.3746 2.5C10.7496 2.5 9.99961 5.83333 9.99961 5.83333Z" stroke="#6A6161" stroke-width="1.5" stroke-linecap="round" stroke-linejoin="round"/>
<path d="M16.6667 9.99967V15.833C16.6667 16.275 16.4911 16.699 16.1785 17.0115C15.866 17.3241 15.442 17.4997 15 17.4997H5C4.55797 17.4997 4.13405 17.3241 3.82149 17.0115C3.50893 16.699 3.33333 16.275 3.33333 15.833V9.99967M17.5 9.99967V7.49967C17.5 7.05765 17.3244 6.63372 17.0118 6.32116C16.6993 6.0086 16.2754 5.83301 15.8333 5.83301H4.16667C3.72464 5.83301 3.30072 6.0086 2.98816 6.32116C2.67559 6.63372 2.5 7.05765 2.5 7.49967V9.99967H17.5Z" stroke="#6A6161" stroke-width="1.5" stroke-linecap="round" stroke-linejoin="round"/>
</svg>
