<svg width="32" height="32" viewBox="0 0 32 32" fill="none" xmlns="http://www.w3.org/2000/svg">
<rect width="32" height="32" rx="16" fill="#FFF0EE"/>
<path d="M21.6253 11V19.125C21.6253 19.2908 21.5595 19.4497 21.4423 19.5669C21.3251 19.6842 21.1661 19.75 21.0003 19.75C20.8346 19.75 20.6756 19.6842 20.5584 19.5669C20.4412 19.4497 20.3753 19.2908 20.3753 19.125V12.5086L11.4425 21.4422C11.3253 21.5595 11.1662 21.6253 11.0003 21.6253C10.8345 21.6253 10.6754 21.5595 10.5582 21.4422C10.4409 21.3249 10.375 21.1659 10.375 21C10.375 20.8341 10.4409 20.6751 10.5582 20.5578L19.4918 11.625H12.8753C12.7096 11.625 12.5506 11.5592 12.4334 11.4419C12.3162 11.3247 12.2503 11.1658 12.2503 11C12.2503 10.8342 12.3162 10.6753 12.4334 10.5581C12.5506 10.4408 12.7096 10.375 12.8753 10.375H21.0003C21.1661 10.375 21.3251 10.4408 21.4423 10.5581C21.5595 10.6753 21.6253 10.8342 21.6253 11Z" fill="#F44027"/>
</svg>
