<svg width="18" height="18" viewBox="0 0 18 18" fill="none" xmlns="http://www.w3.org/2000/svg">
<path d="M15.875 2.125H9.625V0.875C9.625 0.70924 9.55915 0.550269 9.44194 0.433058C9.32473 0.315848 9.16576 0.25 9 0.25C8.83424 0.25 8.67527 0.315848 8.55806 0.433058C8.44085 0.550269 8.375 0.70924 8.375 0.875V2.125H2.125C1.79348 2.125 1.47554 2.2567 1.24112 2.49112C1.0067 2.72554 0.875 3.04348 0.875 3.375V12.75C0.875 13.0815 1.0067 13.3995 1.24112 13.6339C1.47554 13.8683 1.79348 14 2.125 14H5.2L3.51172 16.1094C3.40812 16.2389 3.36021 16.4042 3.37852 16.5691C3.39683 16.7339 3.47987 16.8847 3.60938 16.9883C3.73888 17.0919 3.90423 17.1398 4.06905 17.1215C4.23388 17.1032 4.38468 17.0201 4.48828 16.8906L6.8 14H11.2L13.5117 16.8906C13.563 16.9547 13.6264 17.0081 13.6984 17.0477C13.7703 17.0874 13.8493 17.1124 13.9309 17.1215C14.0126 17.1306 14.0952 17.1235 14.174 17.1006C14.2529 17.0777 14.3265 17.0396 14.3906 16.9883C14.4547 16.937 14.5081 16.8736 14.5477 16.8016C14.5874 16.7297 14.6124 16.6507 14.6215 16.5691C14.6305 16.4874 14.6235 16.4048 14.6006 16.326C14.5777 16.2471 14.5396 16.1735 14.4883 16.1094L12.8 14H15.875C16.2065 14 16.5245 13.8683 16.7589 13.6339C16.9933 13.3995 17.125 13.0815 17.125 12.75V3.375C17.125 3.04348 16.9933 2.72554 16.7589 2.49112C16.5245 2.2567 16.2065 2.125 15.875 2.125ZM15.875 12.75H2.125V3.375H15.875V12.75ZM7.125 8.375V10.25C7.125 10.4158 7.05915 10.5747 6.94194 10.6919C6.82473 10.8092 6.66576 10.875 6.5 10.875C6.33424 10.875 6.17527 10.8092 6.05806 10.6919C5.94085 10.5747 5.875 10.4158 5.875 10.25V8.375C5.875 8.20924 5.94085 8.05027 6.05806 7.93306C6.17527 7.81585 6.33424 7.75 6.5 7.75C6.66576 7.75 6.82473 7.81585 6.94194 7.93306C7.05915 8.05027 7.125 8.20924 7.125 8.375ZM9.625 7.125V10.25C9.625 10.4158 9.55915 10.5747 9.44194 10.6919C9.32473 10.8092 9.16576 10.875 9 10.875C8.83424 10.875 8.67527 10.8092 8.55806 10.6919C8.44085 10.5747 8.375 10.4158 8.375 10.25V7.125C8.375 6.95924 8.44085 6.80027 8.55806 6.68306C8.67527 6.56585 8.83424 6.5 9 6.5C9.16576 6.5 9.32473 6.56585 9.44194 6.68306C9.55915 6.80027 9.625 6.95924 9.625 7.125ZM12.125 5.875V10.25C12.125 10.4158 12.0592 10.5747 11.9419 10.6919C11.8247 10.8092 11.6658 10.875 11.5 10.875C11.3342 10.875 11.1753 10.8092 11.0581 10.6919C10.9408 10.5747 10.875 10.4158 10.875 10.25V5.875C10.875 5.70924 10.9408 5.55027 11.0581 5.43306C11.1753 5.31585 11.3342 5.25 11.5 5.25C11.6658 5.25 11.8247 5.31585 11.9419 5.43306C12.0592 5.55027 12.125 5.70924 12.125 5.875Z" fill="#6A6161"/>
</svg>
