<svg width="16" height="13" viewBox="0 0 16 13" fill="none" xmlns="http://www.w3.org/2000/svg">
<path d="M12.7317 0H3.26835C2.40186 0.000976223 1.57114 0.345607 0.958423 0.958291C0.345705 1.57097 0.00102595 2.40168 0 3.26817V8.8233C0.000984589 9.68982 0.345645 10.5206 0.958368 11.1333C1.57109 11.746 2.40184 12.0906 3.26835 12.0916H12.7317C13.5982 12.0906 14.4289 11.746 15.0417 11.1333C15.6544 10.5206 15.999 9.68981 16 8.8233V3.26817C15.999 2.40168 15.6543 1.57098 15.0416 0.958292C14.4289 0.345608 13.5982 0.000976239 12.7317 0ZM14.9997 3.26832V4.17074H9.77477C9.66748 3.59609 9.35463 3.30849 9.08789 3.1656C8.5614 2.8836 7.79925 2.94365 6.82283 3.34447C6.66494 3.40924 6.51461 3.47755 6.37662 3.54416V1.00033H12.7318C13.3331 1.00106 13.9095 1.24022 14.3346 1.66537C14.7598 2.09051 14.9989 2.66692 14.9997 3.26817V3.26832ZM2.94153 4.55046C2.95059 4.28162 3.01655 4.11229 3.1375 4.04736C3.23178 4.0027 3.33552 3.98165 3.43975 3.98603C3.9065 3.98603 4.63158 4.2714 5.21024 4.57788C4.45962 4.99411 3.49055 5.3601 3.12343 5.16122C3.00852 5.09895 2.96257 4.93352 2.94706 4.76794C2.96156 4.69595 2.95966 4.62162 2.94153 4.55046ZM8.81295 4.61889C8.81118 4.63612 8.81028 4.65343 8.81027 4.67075C8.81027 4.67803 8.81105 4.6851 8.81136 4.69229C8.8032 4.88041 8.76234 5.08929 8.63005 5.16119C8.26521 5.35926 7.2974 4.99445 6.54602 4.57913C6.72693 4.48356 6.95528 4.37134 7.20271 4.26981C8.16324 3.87561 8.52711 3.99988 8.61567 4.04733C8.7388 4.11326 8.80498 4.28684 8.81242 4.56537C8.81292 4.581 8.81311 4.5971 8.81311 4.61345C8.81302 4.6152 8.81295 4.61714 8.81295 4.61889ZM3.26835 1.00033H5.3763V3.5441C5.23838 3.47752 5.08811 3.40924 4.93031 3.34447C3.95395 2.94378 3.19192 2.88363 2.66541 3.16557C2.39844 3.30855 2.08531 3.59649 1.97827 4.17074H1.00033V3.26817C1.00106 2.66689 1.24025 2.09045 1.66543 1.6653C2.09062 1.24015 2.66708 1.00101 3.26835 1.00033ZM1.00033 8.8233V5.17092H2.00378C2.12639 5.65595 2.40391 5.90916 2.64674 6.0407C3.01518 6.24036 3.48408 6.26956 4.06733 6.12701L3.436 6.87413C3.35038 6.97545 3.30851 7.10664 3.3196 7.23883C3.3307 7.37102 3.39386 7.49339 3.49518 7.57902C3.5965 7.66464 3.72769 7.70651 3.85988 7.69542C3.99207 7.68432 4.11444 7.62116 4.20007 7.51984L5.37642 6.12788V11.0913H3.26835C2.66705 11.0906 2.09057 10.8515 1.66538 10.4263C1.24019 10.0011 1.00102 9.4246 1.00033 8.8233ZM12.7317 11.0913H6.37662V6.12779L7.55339 7.51994C7.59579 7.5701 7.64766 7.61142 7.70603 7.64154C7.7644 7.67165 7.82814 7.68998 7.89359 7.69546C7.95905 7.70095 8.02494 7.69349 8.08751 7.67351C8.15009 7.65353 8.20811 7.62142 8.25827 7.57902C8.30844 7.53661 8.34976 7.48474 8.37987 7.42637C8.40999 7.368 8.42831 7.30426 8.4338 7.23881C8.43929 7.17336 8.43183 7.10746 8.41185 7.04489C8.39187 6.98232 8.35976 6.92429 8.31735 6.87413L7.68555 6.1267C7.90428 6.18297 8.12895 6.21289 8.35477 6.21582C8.64146 6.21582 8.89117 6.15733 9.10649 6.04076C9.34913 5.90925 9.62682 5.65601 9.74942 5.17101H14.9997V8.8233C14.999 9.4246 14.7598 10.0011 14.3346 10.4263C13.9095 10.8514 13.333 11.0906 12.7317 11.0913ZM14.2813 8.8233C14.2808 9.23414 14.1174 9.62803 13.8269 9.91853C13.5364 10.209 13.1425 10.3724 12.7316 10.3729H10.6438C10.5112 10.3729 10.3839 10.3202 10.2901 10.2264C10.1963 10.1326 10.1436 10.0054 10.1436 9.87274C10.1436 9.74009 10.1963 9.61287 10.2901 9.51907C10.3839 9.42527 10.5112 9.37257 10.6438 9.37257H12.7316C12.8773 9.37242 13.0169 9.3145 13.1199 9.21152C13.2229 9.10855 13.2808 8.96893 13.281 8.8233C13.281 8.69065 13.3336 8.56343 13.4274 8.46963C13.5212 8.37583 13.6485 8.32314 13.7811 8.32314C13.9138 8.32314 14.041 8.37583 14.1348 8.46963C14.2286 8.56343 14.2813 8.69065 14.2813 8.8233ZM14.2813 7.19705V7.51443C14.2813 7.64709 14.2286 7.7743 14.1348 7.8681C14.041 7.9619 13.9138 8.0146 13.7811 8.0146C13.6485 8.0146 13.5212 7.9619 13.4274 7.8681C13.3336 7.7743 13.281 7.64709 13.281 7.51443V7.19705C13.281 7.0644 13.3336 6.93718 13.4274 6.84338C13.5212 6.74958 13.6485 6.69688 13.7811 6.69688C13.9138 6.69688 14.041 6.74958 14.1348 6.84338C14.2286 6.93718 14.2813 7.0644 14.2813 7.19705Z" fill="#6A6161"/>
</svg>
