<svg width="24" height="24" viewBox="0 0 24 24" fill="none" xmlns="http://www.w3.org/2000/svg">
<rect width="24" height="24" rx="12" fill="#FFF8E5"/>
<path d="M17.5 8.4999H15.3075C15.3319 8.47927 15.3569 8.45927 15.3806 8.4374C15.5704 8.26876 15.7234 8.06276 15.83 7.8323C15.9366 7.60184 15.9944 7.35187 16 7.09802C16.0082 6.82032 15.9596 6.54387 15.8571 6.28564C15.7546 6.02741 15.6004 5.79286 15.404 5.59637C15.2075 5.39989 14.973 5.24563 14.7148 5.14306C14.4566 5.04049 14.1802 4.99177 13.9025 4.9999C13.6485 5.00537 13.3985 5.0632 13.1679 5.16978C12.9373 5.27635 12.7312 5.42938 12.5625 5.61927C12.3291 5.88983 12.1393 6.19517 12 6.52427C11.8607 6.19517 11.6709 5.88983 11.4375 5.61927C11.2688 5.42938 11.0627 5.27635 10.8321 5.16978C10.6015 5.0632 10.3515 5.00537 10.0975 4.9999C9.81979 4.99177 9.54336 5.04049 9.28516 5.14306C9.02696 5.24563 8.79245 5.39989 8.59603 5.59637C8.39961 5.79286 8.24542 6.02741 8.14292 6.28564C8.04043 6.54387 7.99179 6.82032 8 7.09802C8.00556 7.35187 8.06343 7.60184 8.17 7.8323C8.27658 8.06276 8.42956 8.26876 8.61938 8.4374C8.64313 8.45802 8.66813 8.47802 8.6925 8.4999H6.5C6.23478 8.4999 5.98043 8.60525 5.79289 8.79279C5.60536 8.98033 5.5 9.23468 5.5 9.4999V11.4999C5.5 11.7651 5.60536 12.0195 5.79289 12.207C5.98043 12.3945 6.23478 12.4999 6.5 12.4999V16.4999C6.5 16.7651 6.60536 17.0195 6.79289 17.207C6.98043 17.3945 7.23478 17.4999 7.5 17.4999H16.5C16.7652 17.4999 17.0196 17.3945 17.2071 17.207C17.3946 17.0195 17.5 16.7651 17.5 16.4999V12.4999C17.7652 12.4999 18.0196 12.3945 18.2071 12.207C18.3946 12.0195 18.5 11.7651 18.5 11.4999V9.4999C18.5 9.23468 18.3946 8.98033 18.2071 8.79279C18.0196 8.60525 17.7652 8.4999 17.5 8.4999ZM13.3125 6.28177C13.3917 6.19435 13.4881 6.12423 13.5956 6.07583C13.7032 6.02743 13.8196 6.00179 13.9375 6.00052H13.9681C14.1064 6.00139 14.243 6.02983 14.3701 6.08419C14.4972 6.13855 14.6122 6.21773 14.7083 6.31709C14.8044 6.41645 14.8797 6.534 14.9298 6.66284C14.9799 6.79167 15.0037 6.92921 15 7.0674C14.9987 7.18533 14.9731 7.30173 14.9247 7.40929C14.8763 7.51684 14.8062 7.61323 14.7188 7.6924C14.1256 8.2174 13.1413 8.4024 12.5312 8.4674C12.6062 7.80552 12.8125 6.84365 13.3125 6.28177ZM9.30688 6.30427C9.50059 6.11058 9.76294 6.00119 10.0369 5.9999H10.0675C10.1854 6.00117 10.3018 6.02681 10.4094 6.07521C10.5169 6.12361 10.6133 6.19372 10.6925 6.28115C11.2169 6.87365 11.4019 7.85615 11.4669 8.46365C10.8594 8.40115 9.87687 8.21365 9.28438 7.68927C9.19695 7.6101 9.12684 7.51372 9.07844 7.40616C9.03004 7.29861 9.0044 7.18221 9.00313 7.06427C8.99925 6.92379 9.02395 6.78399 9.07574 6.65335C9.12752 6.52271 9.20531 6.40394 9.30438 6.30427H9.30688ZM6.5 9.4999H11.5V11.4999H6.5V9.4999ZM7.5 12.4999H11.5V16.4999H7.5V12.4999ZM16.5 16.4999H12.5V12.4999H16.5V16.4999ZM17.5 11.4999H12.5V9.4999H17.5V11.4999Z" fill="#FFBE00"/>
</svg>
