<svg width="20" height="20" viewBox="0 0 20 20" fill="none" xmlns="http://www.w3.org/2000/svg">
<path d="M6.24935 3.33366C6.70959 3.33366 7.08268 2.96056 7.08268 2.50033C7.08268 2.04009 6.70959 1.66699 6.24935 1.66699H4.99935C3.1584 1.66699 1.66602 3.15938 1.66602 5.00033V15.0003C1.66602 16.8413 3.1584 18.3337 4.99935 18.3337H6.24935C6.70959 18.3337 7.08268 17.9606 7.08268 17.5003C7.08268 17.0401 6.70959 16.667 6.24935 16.667H4.99935C4.07887 16.667 3.33268 15.9208 3.33268 15.0003L3.33268 5.00033C3.33268 4.07985 4.07888 3.33366 4.99935 3.33366H6.24935Z" fill="#F44027"/>
<path d="M18.9219 10.5896C19.2474 10.2641 19.2474 9.73651 18.9219 9.41107L15.5886 6.07774C15.2632 5.7523 14.7355 5.7523 14.4101 6.07774C14.0847 6.40317 14.0847 6.93081 14.4101 7.25625L16.3208 9.16699L6.66602 9.16699C6.20578 9.16699 5.83268 9.54009 5.83268 10.0003C5.83268 10.4606 6.20578 10.8337 6.66602 10.8337L16.3208 10.8337L14.4101 12.7444C14.0847 13.0698 14.0847 13.5975 14.4101 13.9229C14.7355 14.2484 15.2632 14.2484 15.5886 13.9229L18.9219 10.5896Z" fill="#F44027"/>
</svg>
