<svg width="28" height="28" viewBox="0 0 28 28" fill="none" xmlns="http://www.w3.org/2000/svg">
<path d="M15.1659 3.49967C15.1659 2.85534 14.6436 2.33301 13.9993 2.33301C13.3549 2.33301 12.8326 2.85534 12.8326 3.49967V5.24967C12.8326 5.28203 12.8339 5.31408 12.8365 5.34577C9.5239 5.89937 6.99926 8.77854 6.99926 12.2484V16.9163C6.99926 17.4999 6.52079 18.5119 5.99719 19.4446C5.26042 20.7571 5.39535 22.3395 6.80198 22.8751C8.2167 23.4137 10.4797 23.9163 13.9993 23.9163C17.5188 23.9163 19.7818 23.4137 21.1965 22.8751C22.6032 22.3395 22.7381 20.7571 22.0013 19.4446C21.4777 18.5119 20.9993 17.4999 20.9993 16.9163V12.249C20.9993 8.77909 18.4746 5.89948 15.162 5.34578C15.1646 5.31409 15.1659 5.28204 15.1659 5.24967V3.49967Z" fill="#667185"/>
<path d="M10.406 24.8784C10.4496 24.9164 10.5022 24.9607 10.5634 25.0097C10.7388 25.15 10.9893 25.3318 11.3059 25.5127C11.9342 25.8717 12.8632 26.2497 13.9993 26.2497C15.1353 26.2497 16.0644 25.8717 16.6927 25.5127C17.0093 25.3318 17.2598 25.15 17.4351 25.0097C17.4964 24.9607 17.549 24.9164 17.5925 24.8784C16.5724 25.0054 15.383 25.0831 13.9993 25.0831C12.6156 25.0831 11.4261 25.0054 10.406 24.8784Z" fill="#667185"/>
</svg>
