<svg width="32" height="32" viewBox="0 0 32 32" fill="none" xmlns="http://www.w3.org/2000/svg">
<rect width="32" height="32" rx="16" fill="#FFF3EC"/>
<g clip-path="url(#clip0_4190_3982)">
<path d="M25.1252 17.7498C25.0596 17.7991 24.9849 17.8349 24.9053 17.8553C24.8258 17.8756 24.7431 17.8801 24.6618 17.8685C24.5806 17.8569 24.5024 17.8294 24.4318 17.7876C24.3612 17.7458 24.2995 17.6905 24.2502 17.6248C23.8735 17.1185 23.3832 16.7076 22.8187 16.4254C22.2542 16.1431 21.6313 15.9974 21.0002 15.9998C20.8773 15.9998 20.7572 15.9636 20.6547 15.8956C20.5523 15.8277 20.4722 15.731 20.4245 15.6178C20.392 15.5409 20.3753 15.4583 20.3753 15.3748C20.3753 15.2914 20.392 15.2087 20.4245 15.1318C20.4722 15.0186 20.5523 14.922 20.6547 14.854C20.7572 14.7861 20.8773 14.7498 21.0002 14.7498C21.3509 14.7498 21.6946 14.6514 21.9921 14.4659C22.2897 14.2803 22.5293 14.015 22.6836 13.7002C22.838 13.3853 22.901 13.0334 22.8654 12.6845C22.8298 12.3357 22.6971 12.0038 22.4823 11.7266C22.2676 11.4493 21.9794 11.2379 21.6505 11.1162C21.3216 10.9946 20.9651 10.9676 20.6217 11.0384C20.2782 11.1092 19.9615 11.2748 19.7074 11.5166C19.4534 11.7584 19.2723 12.0665 19.1846 12.4061C19.1641 12.4856 19.1281 12.5603 19.0787 12.6259C19.0293 12.6915 18.9675 12.7467 18.8968 12.7884C18.8261 12.8301 18.7478 12.8575 18.6665 12.869C18.5852 12.8805 18.5024 12.8758 18.4229 12.8553C18.3434 12.8348 18.2687 12.7988 18.2031 12.7494C18.1375 12.7 18.0822 12.6382 18.0405 12.5675C17.9988 12.4967 17.9714 12.4185 17.96 12.3372C17.9485 12.2558 17.9532 12.1731 17.9737 12.0936C18.0954 11.6227 18.3253 11.1868 18.6451 10.8204C18.9649 10.454 19.3658 10.1674 19.8159 9.98321C20.266 9.79905 20.7529 9.72249 21.2378 9.7596C21.7227 9.79672 22.1922 9.94649 22.609 10.197C23.0259 10.4475 23.3785 10.7919 23.6388 11.2026C23.8991 11.6134 24.06 12.0793 24.1086 12.5632C24.1572 13.047 24.0922 13.5356 23.9188 13.9899C23.7454 14.4443 23.4683 14.8519 23.1096 15.1803C23.9595 15.5482 24.6982 16.1322 25.2526 16.874C25.3018 16.9399 25.3376 17.0148 25.3578 17.0944C25.3781 17.1741 25.3824 17.257 25.3706 17.3383C25.3588 17.4197 25.331 17.4979 25.2889 17.5685C25.2468 17.6391 25.1912 17.7007 25.1252 17.7498ZM20.9159 22.5623C20.9611 22.6334 20.9914 22.713 21.0051 22.7962C21.0188 22.8793 21.0155 22.9644 20.9955 23.0463C20.9754 23.1282 20.939 23.2051 20.8884 23.2726C20.8379 23.34 20.7742 23.3965 20.7012 23.4387C20.6282 23.4809 20.5475 23.5079 20.4638 23.518C20.3801 23.5282 20.2952 23.5213 20.2143 23.4979C20.1333 23.4744 20.058 23.4348 19.9927 23.3814C19.9275 23.328 19.8737 23.262 19.8346 23.1873C19.4409 22.5206 18.8802 21.9682 18.2078 21.5843C17.5353 21.2005 16.7745 20.9987 16.0002 20.9987C15.226 20.9987 14.4651 21.2005 13.7927 21.5843C13.1203 21.9682 12.5596 22.5206 12.1659 23.1873C12.1268 23.262 12.073 23.328 12.0078 23.3814C11.9425 23.4348 11.8672 23.4744 11.7862 23.4979C11.7052 23.5213 11.6204 23.5282 11.5367 23.518C11.453 23.5079 11.3723 23.4809 11.2993 23.4387C11.2263 23.3965 11.1626 23.34 11.112 23.2726C11.0615 23.2051 11.0251 23.1282 11.005 23.0463C10.985 22.9644 10.9817 22.8793 10.9953 22.7962C11.009 22.713 11.0394 22.6334 11.0846 22.5623C11.6905 21.5212 12.6145 20.7019 13.7205 20.2248C13.0981 19.7483 12.6407 19.0887 12.4126 18.3387C12.1844 17.5888 12.197 16.7862 12.4486 16.0438C12.7002 15.3014 13.1781 14.6565 13.8151 14.1997C14.4522 13.743 15.2164 13.4973 16.0002 13.4973C16.7841 13.4973 17.5483 13.743 18.1853 14.1997C18.8224 14.6565 19.3003 15.3014 19.5519 16.0438C19.8034 16.7862 19.816 17.5888 19.5879 18.3387C19.3597 19.0887 18.9023 19.7483 18.2799 20.2248C19.386 20.7019 20.3099 21.5212 20.9159 22.5623ZM16.0002 19.7498C16.4947 19.7498 16.978 19.6032 17.3892 19.3285C17.8003 19.0538 18.1207 18.6633 18.3099 18.2065C18.4992 17.7497 18.5487 17.247 18.4522 16.7621C18.3557 16.2771 18.1176 15.8317 17.768 15.482C17.4184 15.1324 16.9729 14.8943 16.488 14.7979C16.003 14.7014 15.5003 14.7509 15.0435 14.9401C14.5867 15.1293 14.1963 15.4498 13.9216 15.8609C13.6469 16.272 13.5002 16.7554 13.5002 17.2498C13.5002 17.9129 13.7636 18.5487 14.2325 19.0176C14.7013 19.4864 15.3372 19.7498 16.0002 19.7498ZM11.6252 15.3748C11.6252 15.2091 11.5594 15.0501 11.4422 14.9329C11.325 14.8157 11.166 14.7498 11.0002 14.7498C10.6496 14.7498 10.3059 14.6514 10.0083 14.4659C9.71076 14.2803 9.47119 14.015 9.31682 13.7002C9.16246 13.3853 9.09949 13.0334 9.13508 12.6845C9.17066 12.3357 9.30337 12.0038 9.51813 11.7266C9.73289 11.4493 10.0211 11.2379 10.35 11.1162C10.6789 10.9946 11.0353 10.9676 11.3788 11.0384C11.7223 11.1092 12.039 11.2748 12.293 11.5166C12.5471 11.7584 12.7282 12.0665 12.8159 12.4061C12.8573 12.5666 12.9608 12.7042 13.1037 12.7884C13.2465 12.8727 13.417 12.8967 13.5776 12.8553C13.7382 12.8138 13.8757 12.7103 13.9599 12.5675C14.0442 12.4246 14.0682 12.2541 14.0268 12.0936C13.9051 11.6227 13.6752 11.1868 13.3554 10.8204C13.0356 10.454 12.6347 10.1674 12.1846 9.98321C11.7345 9.79905 11.2476 9.72249 10.7627 9.7596C10.2778 9.79672 9.80826 9.94649 9.39143 10.197C8.9746 10.4475 8.62199 10.7919 8.36166 11.2026C8.10133 11.6134 7.94046 12.0793 7.89185 12.5632C7.84325 13.047 7.90825 13.5356 8.08168 13.9899C8.25511 14.4443 8.53219 14.8519 8.89086 15.1803C8.04186 15.5486 7.30392 16.1325 6.75024 16.874C6.65068 17.0066 6.60787 17.1734 6.63124 17.3375C6.65461 17.5017 6.74224 17.6499 6.87485 17.7494C7.00745 17.849 7.17418 17.8918 7.33835 17.8684C7.50252 17.845 7.65068 17.7574 7.75024 17.6248C8.12695 17.1185 8.61728 16.7076 9.18177 16.4254C9.74625 16.1431 10.3691 15.9974 11.0002 15.9998C11.166 15.9998 11.325 15.934 11.4422 15.8168C11.5594 15.6995 11.6252 15.5406 11.6252 15.3748Z" fill="#FE7F32"/>
</g>
<defs>
<clipPath id="clip0_4190_3982">
<rect width="20" height="20" fill="white" transform="translate(6 6)"/>
</clipPath>
</defs>
</svg>
