<svg width="20" height="20" viewBox="0 0 20 20" fill="none" xmlns="http://www.w3.org/2000/svg">
<g clip-path="url(#clip0_4220_15258)">
<path d="M1.66602 8.33366C1.66602 5.19116 1.66602 3.61949 2.64268 2.64366C3.61935 1.66783 5.19018 1.66699 8.33268 1.66699H11.666C14.8085 1.66699 16.3802 1.66699 17.356 2.64366C18.3318 3.62033 18.3327 5.19116 18.3327 8.33366V9.16699C18.3327 11.5237 18.3327 12.7028 17.6002 13.4345C16.8685 14.167 15.6893 14.167 13.3327 14.167H6.66602C4.30935 14.167 3.13018 14.167 2.39852 13.4345C1.66602 12.7028 1.66602 11.5237 1.66602 9.16699V8.33366Z" stroke="#6A6161" stroke-width="1.5"/>
<path d="M13.3327 18.334H6.66602M9.99935 14.1673V18.334M18.3327 10.834H1.66602" stroke="#6A6161" stroke-width="1.5" stroke-linecap="round"/>
</g>
<defs>
<clipPath id="clip0_4220_15258">
<rect width="20" height="20" fill="white"/>
</clipPath>
</defs>
</svg>
