<svg width="24" height="24" viewBox="0 0 24 24" fill="none" xmlns="http://www.w3.org/2000/svg">
<rect width="24" height="24" rx="12" fill="#E5F9EE"/>
<path fill-rule="evenodd" clip-rule="evenodd" d="M17.2007 10.7868C16.994 8.66684 15.7407 5.3335 11.8673 5.3335C7.994 5.3335 6.74066 8.66684 6.534 10.7868C5.809 11.062 5.33078 11.7581 5.334 12.5335V13.4668C5.334 14.4978 6.16975 15.3335 7.20066 15.3335C8.23159 15.3335 9.06734 14.4977 9.06734 13.4668V12.5335C9.06397 11.7748 8.60334 11.093 7.90066 10.8068C8.034 9.58015 8.68734 6.66684 11.8673 6.66684C15.0473 6.66684 15.694 9.58015 15.8273 10.8068C15.1261 11.0937 14.6678 11.7759 14.6673 12.5335V13.4668C14.6688 13.8181 14.7689 14.1618 14.9563 14.4589C15.1438 14.756 15.4109 14.9943 15.7273 15.1468C15.4473 15.6735 14.734 16.3868 12.9807 16.6002C12.6302 16.068 11.9521 15.8582 11.3623 16.0994C10.7725 16.3407 10.4358 16.9656 10.5588 17.5908C10.6818 18.2161 11.2301 18.6668 11.8673 18.6668C12.1143 18.6655 12.3559 18.5955 12.5655 18.4649C12.775 18.3342 12.9441 18.148 13.054 17.9268C15.914 17.6002 16.8273 16.1268 17.114 15.2602C17.8895 15.0089 18.4111 14.282 18.4007 13.4668V12.5335C18.4039 11.7581 17.9257 11.062 17.2007 10.7868ZM7.734 13.4668C7.734 13.7614 7.49522 14.0002 7.20066 14.0002C6.90609 14.0002 6.66734 13.7614 6.66734 13.4668V12.5335C6.66681 12.4631 6.6802 12.3933 6.70676 12.3281C6.73332 12.263 6.77252 12.2037 6.8221 12.1537C6.87168 12.1038 6.93065 12.0641 6.99563 12.0371C7.0606 12.01 7.13029 11.9961 7.20067 11.9961C7.27106 11.9961 7.34074 12.01 7.40572 12.0371C7.47069 12.0641 7.52967 12.1038 7.57924 12.1537C7.62882 12.2037 7.66802 12.263 7.69458 12.3281C7.72114 12.3933 7.73454 12.4631 7.734 12.5335V13.4668ZM16.0007 12.5335C16.0007 12.2389 16.2394 12.0002 16.534 12.0002C16.8286 12.0002 17.0673 12.2389 17.0673 12.5335V13.4668C17.0673 13.7614 16.8286 14.0002 16.534 14.0002C16.2394 14.0002 16.0007 13.7614 16.0007 13.4668V12.5335Z" fill="#00C159"/>
</svg>
