<svg width="18" height="18" viewBox="0 0 18 18" fill="none" xmlns="http://www.w3.org/2000/svg">
  <path
    d="M2.125 2.75H15.875C16.2065 2.75 16.5245 2.8817 16.7589 3.11612C16.9933 3.35054 17.125 3.66848 17.125 4V14C17.125 14.3315 16.9933 14.6495 16.7589 14.8839C16.5245 15.1183 16.2065 15.25 15.875 15.25H2.125C1.79348 15.25 1.47554 15.1183 1.24112 14.8839C1.0067 14.6495 0.875 14.3315 0.875 14V4C0.875 3.66848 1.0067 3.35054 1.24112 3.11612C1.47554 2.8817 1.79348 2.75 2.125 2.75Z"
    stroke="#6A6161"
    stroke-width="1.25"
  />
  <path
    d="M4.375 6.25H13.625M4.375 9H11.125M4.375 11.75H9.375"
    stroke="#6A6161"
    stroke-width="1.25"
    stroke-linecap="round"
  />
</svg>
