<svg width="20" height="20" viewBox="0 0 20 20" fill="none" xmlns="http://www.w3.org/2000/svg">
<path d="M1.66602 9.99967C1.66602 6.85717 1.66602 5.28551 2.64268 4.30967C3.61935 3.33384 5.19018 3.33301 8.33268 3.33301H11.666C14.8085 3.33301 16.3802 3.33301 17.356 4.30967C18.3318 5.28634 18.3327 6.85717 18.3327 9.99967C18.3327 13.1422 18.3327 14.7138 17.356 15.6897C16.3793 16.6655 14.8085 16.6663 11.666 16.6663H8.33268C5.19018 16.6663 3.61852 16.6663 2.64268 15.6897C1.66685 14.713 1.66602 13.1422 1.66602 9.99967Z" stroke="#6A6161" stroke-width="1.5"/>
<path d="M8.33268 13.333H4.99935M11.666 13.333H10.416M1.66602 8.33301H18.3327" stroke="#6A6161" stroke-width="1.5" stroke-linecap="round"/>
</svg>
